<?xml version="1.0" encoding="utf-8"?>
<!-- Generator: Adobe Illustrator 26.4.1, SVG Export Plug-In . SVG Version: 6.00 Build 0)  -->
<svg version="1.1" id="Layer_1" xmlns="http://www.w3.org/2000/svg" xmlns:xlink="http://www.w3.org/1999/xlink" x="0px" y="0px"
	 viewBox="0 0 456 456" style="enable-background:new 0 0 456 456;" xml:space="preserve">
<style type="text/css">
	.st0{display:none;fill:#F3EFE5;}
	.st1{display:none;fill:#512BD4;}
	.st2{display:none;fill:#FF7E8E;}
	.st3{fill:#FF7E8E;}
	.st4{display:none;fill:none;stroke:#00FF06;stroke-miterlimit:10;}
</style>
<rect class="st0" width="456" height="456"/>
<rect class="st1" width="456" height="456"/>
<g>
	<g>
		<path class="st2" d="M334,146.7c-14.7,0-28.4,2.6-41.6,8.1l-0.7-7l-27.2,2.8v124.8h28.2v-34l-0.1-10.9
			c8.2,7.1,24.1,14.6,45.1,14.6c34,0,56-19.5,56-49.8C393.6,180.7,387.8,146.7,334,146.7z M364.9,195.5c0,15-10.9,23.3-30.6,23.3
			c-22.3,0-40.9-9.9-41.7-14.7v-26c12.6-2.7,25.9-5.2,38.7-5.2C353.9,173,364.9,180.4,364.9,195.5z"/>
		<path class="st2" d="M543.7,219c-6.8,0-7.4-2.6-7.4-5.1v-22.3c0-20.4-10.5-44.8-60.5-44.8c-21.8,0-41.1,4.5-47,6.7l-1,0.4
			l9.1,24.8l1-0.4c4.7-1.6,20-5,37.9-5c18.9,0,29.9,4.8,31.9,13.8c-9.3-2.7-25.3-5.3-39.7-5.3c-29.3,0-45.5,10.4-45.5,29.3
			c0,21,16.6,34,43.4,34c14.3,0,33.9-5.1,43.7-14.6c0.9,5.9,4.1,14.6,23,14.6c5.6,0,12.4-0.8,21.5-2.6l0.9-0.2v-24.8l-1.3,0.3
			C549.7,218.6,546.5,219,543.7,219z M470.5,220.9c-5.8,0-19.2-1.1-19.2-11.5c0-7,9.6-8.1,15.3-8.1h41.5l0,2.1
			C507.4,212.8,486.8,220.9,470.5,220.9z"/>
		<path class="st2" d="M644.4,146.7c-16,0-27.3,3.2-39,8.1l-0.7-7l-27.2,2.8v91.8h28.2v-64.3l1.1-0.2c12.2-2.6,22.7-4.9,35-4.9
			c27.7,0,31.5,11.3,31.5,22.4v47h28.2v-47.2C701.5,164,681.2,146.7,644.4,146.7z"/>
		<rect x="431.3" y="103.6" class="st2" width="98.2" height="22.7"/>
	</g>
	<g>
		<path class="st2" d="M803.8,94.2v44.5l0.2,14.2c-21.8-8.9-44.1-13.2-68.3-13.2c-88.7,0-98.3,56-98.3,80c0,49.8,36.2,82,92.3,82
			c38.3,0,65.5-15,76.8-24.6l2.7,20.3h41.1V89.6L803.8,94.2z M803.9,234c-1.4,8.1-32,24.4-68.7,24.4c-32.5,0-50.4-13.6-50.4-38.4
			c0-24.9,18.1-37,55.2-37c21.1,0,43.1,4,63.8,8.5L803.9,234z"/>
		<path class="st2" d="M609.1,297.2v-40.8l-2.2,0.4c-6.6,1.3-12,2-16.5,2c-11.2,0-12.2-4.4-12.2-8.4v-36.8
			c0-33.6-17.3-73.7-99.7-73.7c-35.9,0-67.6,7.4-77.4,11l-1.7,0.6l14.9,40.8l1.7-0.6c7.7-2.7,33-8.2,62.5-8.2
			c31.2,0,49.3,7.8,52.5,22.7c-15.3-4.4-41.6-8.7-65.4-8.7c-48.3,0-74.9,17.2-74.9,48.3c0,34.6,27.4,56,71.5,56
			c23.6,0,55.8-8.4,72-24c1.4,9.7,6.8,24,37.9,24c9.2,0,20.4-1.4,35.4-4.3L609.1,297.2z M469.7,261.9c-9.5,0-31.6-1.9-31.6-19
			c0-11.6,15.8-13.3,25.3-13.3h68.4l0,3.4C530.5,248.5,496.6,261.9,469.7,261.9z"/>
	</g>
</g>
<g>
	<rect x="116.6" y="332.2" class="st3" width="161.8" height="37.4"/>
	<path class="st3" d="M216.3,90.4h-99.7v203.4h99.7c123.2,0,149.1-55.3,149.1-101.7S339.5,90.4,216.3,90.4z M216.3,250.2h-53.2V134
		h53.2c69.4,0,101.8,18.5,101.8,58.1C318.1,231.8,285.7,250.2,216.3,250.2z"/>
</g>
<line class="st4" x1="228" y1="-36" x2="228" y2="490"/>
</svg>
