<?xml version="1.0" encoding="UTF-8"?><svg id="Layer_1" xmlns="http://www.w3.org/2000/svg" viewBox="0 0 456 456"><defs><style>.cls-1{fill:#f3efe5;}.cls-2{fill:#ff7e8e;}</style></defs><rect class="cls-1" width="456" height="456"/><g><path class="cls-2" d="M131.87,259.65c-9.77,0-18.8,1.75-27.6,5.34l-.45-4.61-18.05,1.87v82.71h18.7v-22.57l-.1-7.23c5.42,4.7,16,9.7,29.91,9.7,22.56,0,37.14-12.96,37.14-33.01,0-9.68-3.85-32.2-39.55-32.2Zm20.51,32.32c0,9.97-7.2,15.46-20.28,15.46-14.76,0-27.09-6.55-27.63-9.71v-17.21c8.34-1.79,17.2-3.42,25.68-3.42,14.96,0,22.23,4.87,22.23,14.88Z"/><path class="cls-2" d="M265.64,307.53c-4.51,0-4.89-1.75-4.89-3.4v-14.81c0-13.54-6.96-29.68-40.13-29.68-14.45,0-27.22,2.97-31.15,4.41l-.69,.25,6.01,16.41,.68-.24c3.09-1.07,13.29-3.29,25.14-3.29,12.55,0,19.82,3.15,21.14,9.13-6.17-1.78-16.75-3.48-26.31-3.48-19.43,0-30.13,6.91-30.13,19.46,0,13.91,11.02,22.56,28.76,22.56,9.49,0,22.45-3.37,28.96-9.65,.57,3.89,2.73,9.65,15.25,9.65,3.69,0,8.23-.55,14.27-1.74l.59-.12v-16.43l-.88,.18c-2.65,.53-4.82,.79-6.63,.79Zm-48.58,1.26c-3.82,0-12.7-.74-12.7-7.65,0-4.66,6.37-5.35,10.17-5.35h27.52v1.38c-.52,6.26-14.18,11.61-24.99,11.61Z"/><path class="cls-2" d="M332.4,259.65c-10.62,0-18.1,2.12-25.88,5.34l-.45-4.61-18.05,1.87v60.89h18.7v-42.63l.74-.16c8.06-1.75,15.02-3.26,23.22-3.26,18.38,0,20.85,7.52,20.85,14.88v31.17h18.7v-31.28c0-20.77-13.43-32.2-37.83-32.2Z"/><rect class="cls-2" x="191.12" y="231.05" width="65.11" height="15.04"/></g><g><path class="cls-2" d="M356.8,128.04v17.89l.1,5.71c-8.76-3.57-17.77-5.3-27.5-5.3-35.7,0-39.55,22.52-39.55,32.2,0,20.05,14.58,33.01,37.14,33.01,15.42,0,26.38-6.03,30.9-9.88l1.07,8.16h16.54V126.17l-18.7,1.87Zm.01,56.24c-.55,3.28-12.88,9.83-27.64,9.83-13.08,0-20.28-5.49-20.28-15.46s7.27-14.88,22.23-14.88c8.48,0,17.33,1.63,25.68,3.42v17.09Z"/><path class="cls-2" d="M278.42,209.7v-16.43l-.88,.18c-2.66,.53-4.83,.79-6.63,.79-4.51,0-4.89-1.75-4.89-3.4v-14.81c0-13.54-6.96-29.68-40.13-29.68-14.45,0-27.22,2.97-31.15,4.41l-.69,.25,6.01,16.41,.68-.24c3.09-1.07,13.29-3.29,25.14-3.29,12.55,0,19.82,3.15,21.14,9.13-6.17-1.78-16.75-3.48-26.31-3.48-19.43,0-30.13,6.91-30.13,19.46,0,13.91,11.02,22.56,28.76,22.56,9.49,0,22.45-3.37,28.96-9.65,.57,3.89,2.73,9.65,15.25,9.65,3.69,0,8.23-.55,14.27-1.74l.59-.12Zm-56.09-14.2c-3.82,0-12.7-.75-12.7-7.65,0-4.65,6.37-5.35,10.17-5.35h27.52v1.38c-.52,6.25-14.18,11.61-24.99,11.61Z"/><path class="cls-2" d="M120.63,127.97h-40.13v81.86h40.13c49.58,0,59.99-22.26,59.99-40.93s-10.41-40.93-59.99-40.93Zm0,64.31h-21.43v-46.76h21.43c27.94,0,40.95,7.43,40.95,23.38s-13.01,23.38-40.95,23.38Z"/><rect class="cls-2" x="196.39" y="117.75" width="65.11" height="15.04"/></g></svg>