<svg version="1.1" id="Layer_1" xmlns="http://www.w3.org/2000/svg" xmlns:xlink="http://www.w3.org/1999/xlink" x="0px" y="0px"
	 viewBox="0 0 577 112" xml:space="preserve">
<g>
	<g>
		<g>
			<path class="st0" d="M0.7,89.2V7.6h40c42.4,0,60.1,16.5,60.1,40.8S83.1,89.2,40.7,89.2H0.7z M18.2,23.9v48.9h22.5
				c30.8,0,42.3-9.1,42.3-24.5S71.5,23.9,40.7,23.9H18.2z" fill="#FFC581"/>
			<path class="st0" d="M199,89.2c-5.9,1.2-10.6,1.7-14.3,1.7c-13.9,0-14.6-7-14.9-10.7c-5.7,6.6-19.2,10.7-29.9,10.7
				c-16.9,0-28.4-7.8-28.4-22.1c0-14.9,14.9-19,29.8-19c10.4,0,21.8,2,27.6,3.8c-0.6-6.2-6.4-11.1-22.4-11.1
				c-12.8,0-23.1,2.4-25.8,3.4l-5.6-15.3c3.5-1.3,16.4-4.4,31.3-4.4c29.4,0,40,12.6,40,29.4v15c0,2.2,0.8,4.2,5.7,4.2
				c1.7,0,4-0.2,6.9-0.8V89.2z M142.8,76.1c11.2,0,25.5-5.5,26.1-12.5v-2.2h-28.7c-5.6,0-11.1,1.4-11.1,6.2
				C129.2,73.7,135.3,76.1,142.8,76.1z" fill="#FFC581"/>
			<path class="st0" d="M273.9,25.1V7.6l17.5-1.7v83.3H276l-1.2-8.9l-0.1-0.1c-3.7,3.7-15,10.7-31.8,10.7
				c-23.5,0-36.9-13.6-36.9-32.7c0-18.3,12.2-31.9,39.4-31.9c11,0,20.3,2.2,28.5,5.7l0.1-0.1L273.9,25.1z M223.8,58.3
				c0,9.6,6.3,16.4,21.3,16.4c14.5,0,28.1-6.4,28.8-10.6V46.1c-8.6-1.9-17.9-3.6-26.8-3.6C229.4,42.4,223.8,49.2,223.8,58.3z" fill="#FFC581"/>
			<path class="st0" d="M320.4,80.3l0.1,8.9v22.1H303V28.8l16.9-1.7l0.5,4.8l0.1,0.1c8.3-3.5,17.6-5.7,28.5-5.7
				c27.2,0,39.4,13.6,39.4,31.9c0,19.1-13.4,32.7-36.9,32.7c-16.8,0-27.3-7-31-10.7L320.4,80.3z M320.5,46.1v18.1
				c0.7,4.2,14.3,10.6,28.8,10.6c15,0,21.3-6.9,21.3-16.4c0-9.1-5.6-15.8-23.3-15.8C338.5,42.4,329.1,44.2,320.5,46.1z" fill="#FFC581"/>
			<path class="st0" d="M485.4,89.2c-5.9,1.2-10.6,1.7-14.3,1.7c-13.9,0-14.6-7-14.9-10.7c-5.7,6.6-19.2,10.7-29.9,10.7
				c-16.9,0-28.4-7.8-28.4-22.1c0-14.9,14.9-19,29.8-19c10.4,0,21.8,2,27.6,3.8c-0.6-6.2-6.4-11.1-22.4-11.1
				c-12.8,0-23.1,2.4-25.8,3.4l-5.6-15.3c3.5-1.3,16.4-4.4,31.3-4.4c29.4,0,40,12.6,40,29.4v15c0,2.2,0.8,4.2,5.7,4.2
				c1.7,0,4-0.2,6.9-0.8V89.2z M429.3,76.1c11.2,0,25.5-5.5,26.1-12.5v-2.2h-28.7c-5.6,0-11.1,1.4-11.1,6.2
				C415.6,73.7,421.8,76.1,429.3,76.1z" fill="#FFC581"/>
			<path class="st0" d="M559.2,89.2V58.3c0-9.1-4.2-15.8-21.9-15.8c-8.9,0-16.4,1.7-25.1,3.6v43.1h-17.5V28.8l16.9-1.7l0.5,4.8
				l0.1,0.1c8.3-3.5,15.8-5.7,26.8-5.7c27.2,0,37.6,13.6,37.6,31.9v31H559.2z" fill="#FFC581"/>
		</g>
	</g>
	<g>
		<rect x="115.7" class="st1" width="66.1" height="15.3" fill="#FFC581"/>
		<rect x="402" class="st1" width="66.1" height="15.3" fill="#FFC581"/>
	</g>
</g>
</svg>
